<svg width="27" height="27" viewBox="0 0 27 27" fill="none" xmlns="http://www.w3.org/2000/svg">
<path d="M21.6615 4.444C21.5873 4.39318 21.5114 4.34345 21.4327 4.30074C21.1182 4.12993 21.0016 3.73654 21.1724 3.42205C21.3431 3.10755 21.7366 2.99102 22.0511 3.16177C22.1773 3.23038 22.2992 3.30671 22.416 3.39035C22.707 3.59868 22.7739 4.00352 22.5655 4.29447C22.4391 4.47116 22.0319 4.69791 21.6615 4.444Z" fill="url(#paint0_linear_36_1566)"/>
<path d="M13.6879 27H13.2765C11.3273 27 9.74138 25.4141 9.74138 23.4648C9.74138 23.169 9.32062 22.9949 9.11153 23.2041C8.44387 23.8717 7.55611 24.2395 6.61187 24.2395C5.66762 24.2395 4.77986 23.8717 4.11215 23.2041L3.79598 22.8879C2.41769 21.5096 2.5103 19.3536 3.79598 17.8885C4.01404 17.6401 3.74404 17.2621 3.49677 17.2587C1.56881 17.2327 0 15.69 0 13.762V13.284C0 12.2845 0.393228 11.3699 1.10727 10.7087C1.82131 10.0476 2.76345 9.72562 3.76002 9.80251C3.7773 9.80365 4.04325 9.39605 3.81964 9.13529L3.79593 9.11158C3.12822 8.44393 2.76053 7.55617 2.76053 6.61187C2.76053 5.66762 3.12827 4.77986 3.79593 4.11215L4.1121 3.79598C4.77981 3.12827 5.66757 2.76059 6.61181 2.76059C7.55606 2.76059 8.42503 3.14766 9.11153 3.79598C9.29475 3.96905 9.747 3.7193 9.74133 3.53522C9.68134 1.58679 11.3272 0 13.2765 0H13.7624C14.7833 0 15.7083 0.40176 16.367 1.13125C17.0016 1.83422 17.3084 2.75227 17.2369 3.72681C17.3517 3.76202 17.6108 3.9352 17.9178 3.7665L17.9227 3.76169C18.4167 3.2677 19.0392 2.93657 19.7228 2.80427C20.0741 2.73645 20.4142 2.96595 20.4821 3.31727C20.5502 3.66865 20.3205 4.00858 19.9691 4.07662C19.5403 4.15962 19.1496 4.36763 18.8391 4.67813L18.8343 4.68293C17.604 5.41798 15.93 4.68002 15.9379 3.70548C15.9431 3.05602 15.8148 2.4536 15.405 1.99978C14.9953 1.54591 14.4119 1.296 13.7624 1.296H13.2765C12.0418 1.296 11.1361 2.30445 11.0373 3.53516C10.944 4.698 9.288 5.52598 8.19509 4.71236C7.71536 4.35521 7.20992 4.05653 6.61181 4.05653C6.01376 4.05653 5.45146 4.28944 5.02853 4.71236L4.71236 5.02853C4.28944 5.45146 4.05653 6.01376 4.05653 6.61181C4.05653 7.20992 4.28944 7.77217 4.71236 8.19509L4.73607 8.2188C5.27402 9.16196 4.84202 10.962 3.6605 11.0946C3.0301 11.1654 2.43394 11.2465 1.98779 11.6596C1.5417 12.0727 1.296 12.6496 1.296 13.284V13.762C1.296 14.9754 2.28323 15.9627 3.49672 15.9627H3.53516C4.698 15.786 5.67 17.874 4.71236 18.8049C3.82709 19.6655 3.83935 21.0984 4.71236 21.9715L5.02853 22.2876C5.45146 22.7106 6.01376 22.9435 6.61181 22.9435C7.20992 22.9435 7.70413 22.6292 8.19509 22.2876C9.05396 21.69 10.8 22.086 11.0373 23.4648C11.2468 24.6816 12.0418 25.704 13.2765 25.704H13.6878C14.9422 25.704 15.9626 24.6835 15.9626 23.4292V23.3711C16.092 22.194 18.018 21.546 18.7286 22.2158L18.9654 22.4097C19.8249 23.1135 21.2146 23.0445 22.0001 22.259L22.2877 21.9714C22.7106 21.5485 22.9435 20.9862 22.9435 20.3881C22.9435 19.79 22.664 19.2697 22.2877 18.8049C21.3301 17.622 22.3381 15.966 23.4649 15.9626C24.6995 15.959 25.704 14.9582 25.704 13.7235V13.2292C25.704 12.0148 24.7161 11.0104 23.5018 10.9904L23.4654 10.9898C22.194 10.7281 21.618 8.98209 22.3169 8.16599L22.3218 8.16102C23.0008 7.48208 23.1574 6.41822 22.7028 5.57393C22.5331 5.25884 22.651 4.86583 22.9661 4.69616C23.2813 4.52644 23.6742 4.64443 23.8439 4.95947C24.5677 6.30369 24.2967 7.97553 23.2383 9.0774C22.9905 9.3353 23.3145 9.7133 23.5233 9.69457C24.4527 9.61114 25.3307 10.0849 25.9851 10.7503C26.6396 11.4155 27 12.296 27 13.2292V13.7235C27 15.6727 25.4141 17.2586 23.4648 17.2586C23.1691 17.2586 22.9949 17.6793 23.2041 17.8884C23.8718 18.5561 24.2395 19.4438 24.2395 20.3881C24.2395 21.3324 23.8717 22.2201 23.2041 22.8878L22.9165 23.1754C21.66 24.432 19.516 24.5422 18.1443 23.4125C17.7795 23.112 17.2587 23.3148 17.2587 23.4292C17.2587 25.3981 15.6568 27 13.6879 27Z" fill="url(#paint1_linear_36_1566)"/>
<path d="M11.5206 17.1552L8.17025 13.8049C7.91721 13.5518 7.91721 13.1416 8.17025 12.8885C8.42335 12.6354 8.83359 12.6354 9.08669 12.8885L11.9788 15.7806L17.9146 9.84485C18.1676 9.59175 18.5779 9.59175 18.831 9.84485C19.084 10.098 19.084 10.5082 18.831 10.7613L12.437 17.1552C12.2451 17.4016 11.7456 17.3746 11.5206 17.1552Z" fill="url(#paint2_linear_36_1566)"/>
<defs>
<linearGradient id="paint0_linear_36_1566" x1="21.8903" y1="3.08313" x2="21.8903" y2="4.55748" gradientUnits="userSpaceOnUse">
<stop stop-color="#00B307"/>
<stop offset="1" stop-color="#056839"/>
</linearGradient>
<linearGradient id="paint1_linear_36_1566" x1="13.5" y1="0" x2="13.5" y2="27" gradientUnits="userSpaceOnUse">
<stop stop-color="#00B307"/>
<stop offset="1" stop-color="#056839"/>
</linearGradient>
<linearGradient id="paint2_linear_36_1566" x1="13.5006" y1="9.65503" x2="13.5006" y2="17.33" gradientUnits="userSpaceOnUse">
<stop stop-color="#00B307"/>
<stop offset="1" stop-color="#056839"/>
</linearGradient>
</defs>
</svg>
