<svg width="54" height="54" viewBox="0 0 54 54" fill="none" xmlns="http://www.w3.org/2000/svg">
<path d="M20.1445 40.4654C19.6367 43.0501 17.3586 44.9999 14.6251 44.9999H10.1251C9.50381 44.9999 9.00013 44.4962 9.00013 43.8749V39.3749C9.00013 36.6414 10.9499 34.3633 13.5346 33.8555L13.5612 33.0842C13.6062 31.7801 13.7405 30.5001 13.9581 29.2499H5.62513C4.82924 29.2499 4.28501 28.446 4.5806 27.7071L9.0806 16.4571C9.25144 16.0299 9.66512 15.7499 10.1251 15.7499H20.2501C20.3072 15.7499 20.3634 15.7541 20.4182 15.7623C25.7156 9.72317 33.5807 6.02304 42.2355 6.32148C43.6096 6.36886 44.9781 6.51834 46.33 6.76868C46.7881 6.85351 47.1465 7.21193 47.2313 7.67002C49.0776 17.6396 45.3427 27.3505 38.2383 33.5859C38.2461 33.6394 38.2501 33.6942 38.2501 33.7499V43.8749C38.2501 44.3349 37.9701 44.7486 37.5429 44.9194L26.2929 49.4194C25.554 49.715 24.7501 49.1708 24.7501 48.3749V40.0385C23.483 40.2607 22.2018 40.3945 20.9158 40.4388L20.1445 40.4654ZM17.972 39.8127L14.1873 36.028C12.5302 36.2427 11.2501 37.6593 11.2501 39.3749V42.7499H14.6251C16.3407 42.7499 17.7573 41.4698 17.972 39.8127ZM27.0001 39.5482V46.7132L36.0001 43.1132V35.3546C33.3404 37.2421 30.3107 38.6831 27.0001 39.5482ZM14.4469 26.9999C15.3047 23.7182 16.7459 20.6806 18.6498 17.9999H10.8868L7.2868 26.9999H14.4469ZM19.5749 38.2337L20.8383 38.1901C22.1008 38.1466 23.3584 38.0092 24.6005 37.7792C38.1831 35.2639 47.2405 22.4098 45.1497 8.85056C44.1591 8.69836 43.1601 8.6047 42.158 8.57014C28.0914 8.08509 16.2949 19.0951 15.8099 33.1617L15.7663 34.4251L19.5749 38.2337ZM31.5001 29.2499C27.7722 29.2499 24.7501 26.2278 24.7501 22.4999C24.7501 18.7719 27.7722 15.7499 31.5001 15.7499C35.2281 15.7499 38.2501 18.7719 38.2501 22.4999C38.2501 26.2278 35.2281 29.2499 31.5001 29.2499ZM31.5001 26.9999C33.9854 26.9999 36.0001 24.9852 36.0001 22.4999C36.0001 20.0146 33.9854 17.9999 31.5001 17.9999C29.0149 17.9999 27.0001 20.0146 27.0001 22.4999C27.0001 24.9852 29.0149 26.9999 31.5001 26.9999Z" fill="url(#paint0_linear_39_1665)"/>
<defs>
<linearGradient id="paint0_linear_39_1665" x1="26.0995" y1="6.30469" x2="26.0995" y2="49.501" gradientUnits="userSpaceOnUse">
<stop stop-color="#00B307"/>
<stop offset="1" stop-color="#056839"/>
</linearGradient>
</defs>
</svg>
