<svg width="54" height="54" viewBox="0 0 54 54" fill="none" xmlns="http://www.w3.org/2000/svg">
<path d="M38.9371 18.7582C41.6012 18.7582 43.7686 16.5908 43.7686 13.9266C43.7686 11.2624 41.6012 9.09497 38.9371 9.09497C36.273 9.09497 34.1055 11.2624 34.1055 13.9266C34.1055 16.5908 36.2728 18.7582 38.9371 18.7582ZM38.9371 10.8003C40.6609 10.8003 42.0634 12.2028 42.0634 13.9266C42.0634 15.6504 40.6609 17.0529 38.9371 17.0529C37.2133 17.0529 35.8108 15.6504 35.8108 13.9266C35.8108 12.2028 37.2133 10.8003 38.9371 10.8003Z" fill="url(#paint0_linear_39_1553)"/>
<path d="M48.6 31.2636H46.6106V27.9596C46.6106 23.7282 43.1682 20.2859 38.9369 20.2859C38.1696 20.2859 37.4147 20.3986 36.6882 20.6215C34.858 17.5175 31.4802 15.4302 27.6235 15.4302H26.3766C22.4473 15.4302 19.015 17.5969 17.2101 20.7979C17.1611 20.7684 17.1088 20.7434 17.0528 20.7235C16.2322 20.4331 15.3715 20.2857 14.4947 20.2857C10.2634 20.2857 6.82098 23.7281 6.82098 27.9594V31.2636H5.4C2.42251 31.2636 0 33.6861 0 36.6636C0 39.6411 2.42251 42.0636 5.4 42.0636H15.4081C17.3336 46.1804 21.3886 49.1092 26.1473 49.4239V53.1477C26.1473 53.6187 26.529 54.0003 26.9999 54.0003C27.4709 54.0003 27.8525 53.6187 27.8525 53.1477V49.4239C32.6113 49.1091 36.6661 46.1804 38.5917 42.0636H48.6C51.5775 42.0636 54 39.6411 54 36.6636C54 33.6861 51.5775 31.2636 48.6 31.2636ZM17.5662 25.946C17.5661 21.0879 21.5184 17.1356 26.3766 17.1356H27.6235C32.4816 17.1356 36.434 21.088 36.434 25.9462V28.0375C34.2737 25.6768 31.2414 24.1276 27.8527 23.9033V20.1793C27.8527 19.7083 27.471 19.3267 27.0001 19.3267C26.5291 19.3267 26.1475 19.7083 26.1475 20.1793V23.9032C22.7587 24.1274 19.7265 25.6768 17.5662 28.0374V25.946ZM38.0517 35.8109H35.7686C35.3654 31.6322 32.0314 28.2983 27.8526 27.895V25.6118C33.2862 26.027 37.6365 30.3773 38.0517 35.8109ZM26.1474 25.6119V27.8951C21.9687 28.2983 18.6348 31.6323 18.2314 35.8111H15.9484V35.811C16.3636 30.3774 20.7139 26.027 26.1474 25.6119ZM5.4 40.3584C3.36266 40.3584 1.70522 38.7009 1.70522 36.6636C1.70522 34.6262 3.36266 32.9688 5.4 32.9688H6.82109V35.8109H5.68424C5.21322 35.8109 4.83163 36.1924 4.83163 36.6635C4.83163 37.1345 5.21322 37.5161 5.68424 37.5161H14.2397C14.3045 38.4975 14.4805 39.449 14.7554 40.3581H5.4V40.3584ZM15.8608 30.3859C14.9428 32.0083 14.3694 33.85 14.2396 35.8111H8.52631V27.9597C8.52631 24.6687 11.2038 21.9913 14.4947 21.9913C15.1772 21.9913 15.8464 22.1057 16.4839 22.3313C16.489 22.3331 16.4942 22.3342 16.4993 22.3359C16.0863 23.4623 15.8607 24.6783 15.8607 25.9462V30.3859H15.8608ZM26.1475 47.7154C20.7139 47.3001 16.3636 42.9498 15.9484 37.5163H18.2315C18.6348 41.695 21.9687 45.0289 26.1475 45.4322V47.7154ZM27 42.0636C26.529 42.0636 26.1474 42.4452 26.1474 42.9162V43.7159C22.9101 43.3267 20.3369 40.7534 19.9477 37.5162H20.4632C20.9342 37.5162 21.3158 37.1346 21.3158 36.6636C21.3158 36.1926 20.9341 35.811 20.4632 35.811H19.9477C20.3369 32.5737 22.9101 30.0005 26.1474 29.6113V30.411C26.1474 30.882 26.5291 31.2636 27 31.2636C27.471 31.2636 27.8526 30.8819 27.8526 30.411V29.6113C31.0899 30.0005 33.6631 32.5737 34.0523 35.811H33.5369C33.0658 35.811 32.6842 36.1926 32.6842 36.6636C32.6842 37.1346 33.0659 37.5162 33.5369 37.5162H34.0523C33.6631 40.7534 31.0899 43.3267 27.8526 43.7159V42.9162C27.8526 42.4453 27.471 42.0636 27 42.0636ZM27.8526 47.7152V45.432C32.0313 45.0288 35.3653 41.6949 35.7686 37.5161H38.0518C37.6365 42.9497 33.2862 47.3001 27.8526 47.7152ZM38.1391 30.3858V25.946C38.1391 24.6197 37.8916 23.3503 37.4415 22.1805C37.9275 22.055 38.4285 21.9913 38.9369 21.9913C42.2278 21.9913 44.9052 24.6688 44.9052 27.9597V35.811H39.7604C39.6306 33.8498 39.0571 32.0082 38.1391 30.3858ZM48.6 40.3584H39.2446C39.5195 39.4492 39.6955 38.4977 39.7604 37.5163H48.3158C48.7868 37.5163 49.1684 37.1347 49.1684 36.6637C49.1684 36.1927 48.7868 35.8111 48.3158 35.8111H46.6106V32.969H48.6C50.6374 32.969 52.2948 34.6264 52.2948 36.6638C52.2948 38.7009 50.6374 40.3584 48.6 40.3584Z" fill="url(#paint1_linear_39_1553)"/>
<path d="M27.0016 13.7062C30.7803 13.7062 33.8547 10.6318 33.8547 6.85305C33.8547 3.07431 30.7803 0 27.0016 0C23.2229 0 20.1484 3.07442 20.1484 6.85315C20.1484 10.6319 23.2229 13.7062 27.0016 13.7062ZM27.0016 1.70522C29.8402 1.70522 32.1494 4.01446 32.1494 6.85305C32.1494 9.69163 29.8402 12.001 27.0016 12.001C24.163 12.001 21.8538 9.69174 21.8538 6.85315C21.8538 4.01456 24.163 1.70522 27.0016 1.70522Z" fill="url(#paint2_linear_39_1553)"/>
<path d="M30.1276 36.6627C30.1276 34.9389 28.7251 33.5364 27.0013 33.5364C25.2775 33.5364 23.875 34.9389 23.875 36.6627C23.875 38.3865 25.2775 39.789 27.0013 39.789C28.7251 39.789 30.1276 38.3865 30.1276 36.6627ZM27.0013 38.0838C26.2177 38.0838 25.5802 37.4463 25.5802 36.6627C25.5802 35.879 26.2177 35.2416 27.0013 35.2416C27.7849 35.2416 28.4224 35.879 28.4224 36.6627C28.4224 37.4463 27.7849 38.0838 27.0013 38.0838Z" fill="url(#paint3_linear_39_1553)"/>
<path d="M14.4956 18.7582C17.1597 18.7582 19.3272 16.5908 19.3272 13.9266C19.3272 11.2624 17.1598 9.09497 14.4956 9.09497C11.8314 9.09497 9.66406 11.2624 9.66406 13.9266C9.66406 16.5908 11.8313 18.7582 14.4956 18.7582ZM14.4956 10.8003C16.2194 10.8003 17.6219 12.2028 17.6219 13.9266C17.6219 15.6504 16.2194 17.0529 14.4956 17.0529C12.7718 17.0529 11.3693 15.6504 11.3693 13.9266C11.3693 12.2028 12.7717 10.8003 14.4956 10.8003Z" fill="url(#paint4_linear_39_1553)"/>
<defs>
<linearGradient id="paint0_linear_39_1553" x1="38.937" y1="9.09497" x2="38.937" y2="18.7582" gradientUnits="userSpaceOnUse">
<stop stop-color="#00B307"/>
<stop offset="1" stop-color="#056839"/>
</linearGradient>
<linearGradient id="paint1_linear_39_1553" x1="27" y1="15.4302" x2="27" y2="54.0003" gradientUnits="userSpaceOnUse">
<stop stop-color="#00B307"/>
<stop offset="1" stop-color="#056839"/>
</linearGradient>
<linearGradient id="paint2_linear_39_1553" x1="27.0016" y1="0" x2="27.0016" y2="13.7062" gradientUnits="userSpaceOnUse">
<stop stop-color="#00B307"/>
<stop offset="1" stop-color="#056839"/>
</linearGradient>
<linearGradient id="paint3_linear_39_1553" x1="27.0013" y1="33.5364" x2="27.0013" y2="39.789" gradientUnits="userSpaceOnUse">
<stop stop-color="#00B307"/>
<stop offset="1" stop-color="#056839"/>
</linearGradient>
<linearGradient id="paint4_linear_39_1553" x1="14.4956" y1="9.09497" x2="14.4956" y2="18.7582" gradientUnits="userSpaceOnUse">
<stop stop-color="#00B307"/>
<stop offset="1" stop-color="#056839"/>
</linearGradient>
</defs>
</svg>
