<svg width="36" height="35" viewBox="0 0 36 35" fill="none" xmlns="http://www.w3.org/2000/svg">
<g clip-path="url(#clip0_16_6661)">
<path d="M34.0764 8.54467C34.0764 8.41332 34.0472 8.28197 33.9888 8.15791C33.872 7.9098 33.6458 7.74197 33.3977 7.69089L18.5332 0.481183C18.2924 0.364427 18.0078 0.364427 17.767 0.481183L2.75647 7.75656C2.46458 7.89521 2.27485 8.1871 2.26025 8.51548V8.52278C2.26025 8.53007 2.26025 8.53737 2.26025 8.55196V26.8097C2.26025 27.1454 2.44998 27.4519 2.75647 27.5978L17.767 34.8732C17.7743 34.8732 17.7743 34.8732 17.7815 34.8805C17.8034 34.8878 17.8253 34.8951 17.8472 34.9097C17.8545 34.9097 17.8618 34.917 17.8764 34.917C17.8983 34.9243 17.9202 34.9316 17.9421 34.9389C17.9494 34.9389 17.9567 34.9462 17.964 34.9462C17.9859 34.9535 18.0151 34.9535 18.037 34.9608C18.0442 34.9608 18.0515 34.9608 18.0588 34.9608C18.088 34.9608 18.1245 34.9681 18.1537 34.9681C18.1829 34.9681 18.2194 34.9681 18.2486 34.9608C18.2559 34.9608 18.2632 34.9608 18.2705 34.9608C18.2924 34.9608 18.3215 34.9535 18.3434 34.9462C18.3507 34.9462 18.358 34.9389 18.3653 34.9389C18.3872 34.9316 18.4091 34.9243 18.431 34.917C18.4383 34.917 18.4456 34.9097 18.4602 34.9097C18.4821 34.9024 18.504 34.8951 18.5259 34.8805C18.5332 34.8805 18.5332 34.8805 18.5405 34.8732L33.5947 27.5759C33.8939 27.43 34.0909 27.1235 34.0909 26.7878V8.56656C34.0764 8.55926 34.0764 8.55196 34.0764 8.54467ZM18.1464 2.23983L31.1647 8.55196L26.3704 10.8798L13.3521 4.56765L18.1464 2.23983ZM18.1464 14.8641L5.12808 8.55196L11.3454 5.53819L24.3637 11.8503L18.1464 14.8641ZM4.0116 9.96034L17.2707 16.3892V32.684L4.0116 26.2551V9.96034ZM19.0221 32.684V16.3892L25.2467 13.3682V17.6298C25.2467 18.1114 25.6407 18.5054 26.1223 18.5054C26.6039 18.5054 26.998 18.1114 26.998 17.6298V12.5144L32.325 9.93115V26.226L19.0221 32.684Z" fill="#00B307"/>
</g>
<defs>
<clipPath id="clip0_16_6661">
<rect width="34.5745" height="34.5745" fill="white" transform="translate(0.888184 0.393616)"/>
</clipPath>
</defs>
</svg>
