<svg width="56" height="56" viewBox="0 0 56 56" fill="none" xmlns="http://www.w3.org/2000/svg">
<path fill-rule="evenodd" clip-rule="evenodd" d="M51.1797 25.3074C52.1429 33.607 48.6203 41.6549 42.0854 46.6109C41.5721 47.0002 40.8402 46.8996 40.4509 46.3863C40.0615 45.8728 40.162 45.141 40.6755 44.7517C46.5591 40.2896 49.7289 33.0475 48.8619 25.5764C48.6166 23.4634 48.0655 21.4603 47.258 19.6061L30.529 36.3352C29.8464 37.0178 28.9277 37.3759 27.9998 37.3651C27.0455 37.3759 26.1269 37.0178 25.4443 36.3352L16.7526 27.6435C16.297 27.188 16.297 26.4492 16.7526 25.9936C17.2083 25.5381 17.9469 25.5381 18.4026 25.9936L27.0943 34.6853C27.3235 34.9144 27.6347 35.0358 27.9998 35.032C28.3386 35.0358 28.6498 34.9144 28.879 34.6853L46.147 17.4172C42.0692 10.4349 34.125 6.14922 25.5785 7.14311C14.0579 8.48262 5.80519 18.907 7.14264 30.4288C8.23903 39.8591 15.5084 47.3135 24.7711 48.7595C24.9917 48.7974 25.3856 48.8562 25.8853 48.9154C26.2804 48.9622 26.6772 49.0005 27.0654 49.0277C27.7082 49.0729 28.1926 49.6304 28.1476 50.2733C28.1025 50.916 27.5449 51.4005 26.9022 51.3553C26.4746 51.3254 26.0413 51.2835 25.611 51.2325C25.0671 51.1681 24.634 51.1035 24.3935 51.0619C14.1191 49.4582 6.04317 41.1768 4.82489 30.6981C3.33887 17.8962 12.5084 6.31372 25.309 4.82539C34.5892 3.74617 43.2304 8.26953 47.8475 15.7169L49.326 14.2383C49.7817 13.7827 50.5203 13.7827 50.976 14.2383C51.4316 14.6939 51.4316 15.4326 50.976 15.8882L49.0178 17.8463C50.1229 20.1336 50.8703 22.6418 51.1797 25.3074Z" fill="url(#paint0_linear_39_1638)"/>
<defs>
<linearGradient id="paint0_linear_39_1638" x1="28.0018" y1="4.66699" x2="28.0018" y2="51.3583" gradientUnits="userSpaceOnUse">
<stop stop-color="#00B307"/>
<stop offset="1" stop-color="#056839"/>
</linearGradient>
</defs>
</svg>
