<svg width="47" height="47" viewBox="0 0 47 47" fill="none" xmlns="http://www.w3.org/2000/svg">
<path d="M31.1684 6.67895V3.21582H15.8316V6.67895H0V43.7843H37.1653L47 33.9494V6.67895H31.1684ZM17.3158 4.69999H29.6843V10.1421H17.3158V4.69999ZM37.6 41.2506V34.3843H44.4663L37.6 41.2506ZM45.5158 32.9H36.1158V42.3H1.48417V8.16312H15.8316V11.6262H22.7579V17.5631H14.2882C13.9313 15.3229 11.9864 13.6052 9.64739 13.6052C7.05587 13.6052 4.94739 15.7137 4.94739 18.3052C4.94739 20.8967 7.05587 23.0052 9.64739 23.0052C11.9864 23.0052 13.9313 21.2875 14.2882 19.0473H22.7579V24.9842H15.8316V33.3947H31.1684V24.9842H24.2421V19.0473H32.7118C33.0687 21.2875 35.0136 23.0052 37.3526 23.0052C39.9441 23.0052 42.0526 20.8967 42.0526 18.3052C42.0526 15.7137 39.9441 13.6052 37.3526 13.6052C35.0136 13.6052 33.0687 15.3229 32.7118 17.5631H24.2421V11.6262H31.1684V8.16312H45.5158V32.9ZM29.6842 26.4684V31.9105H17.3158V26.4684H29.6842ZM12.8631 18.3053C12.8631 20.0784 11.4204 21.5211 9.6473 21.5211C7.87415 21.5211 6.43147 20.0784 6.43147 18.3053C6.43147 16.5321 7.87415 15.0895 9.6473 15.0895C11.4205 15.0895 12.8631 16.5321 12.8631 18.3053ZM34.1369 18.3053C34.1369 16.5321 35.5796 15.0895 37.3527 15.0895C39.1258 15.0895 40.5685 16.5321 40.5685 18.3053C40.5685 20.0784 39.1258 21.5211 37.3527 21.5211C35.5795 21.521 34.1369 20.0784 34.1369 18.3053Z" fill="url(#paint0_linear_39_1605)"/>
<path d="M27.4578 6.67896H19.542V8.16313H27.4578V6.67896Z" fill="url(#paint1_linear_39_1605)"/>
<path d="M27.4578 28.4478H19.542V29.9319H27.4578V28.4478Z" fill="url(#paint2_linear_39_1605)"/>
<path d="M38.342 17.5632H36.363V19.0474H38.342V17.5632Z" fill="url(#paint3_linear_39_1605)"/>
<path d="M10.6372 17.5632H8.6582V19.0474H10.6372V17.5632Z" fill="url(#paint4_linear_39_1605)"/>
<path d="M5.44218 38.3426V33.1479H3.95801V39.8269H10.1422V38.3426H5.44218Z" fill="url(#paint5_linear_39_1605)"/>
<path d="M14.1001 38.3418H12.1211V39.826H14.1001V38.3418Z" fill="url(#paint6_linear_39_1605)"/>
<path d="M43.7846 10.1421H41.8057V11.6263H43.7846V10.1421Z" fill="url(#paint7_linear_39_1605)"/>
<defs>
<linearGradient id="paint0_linear_39_1605" x1="23.5" y1="3.21582" x2="23.5" y2="43.7843" gradientUnits="userSpaceOnUse">
<stop stop-color="#00B307"/>
<stop offset="1" stop-color="#056839"/>
</linearGradient>
<linearGradient id="paint1_linear_39_1605" x1="23.4999" y1="6.67896" x2="23.4999" y2="8.16313" gradientUnits="userSpaceOnUse">
<stop stop-color="#00B307"/>
<stop offset="1" stop-color="#056839"/>
</linearGradient>
<linearGradient id="paint2_linear_39_1605" x1="23.4999" y1="28.4478" x2="23.4999" y2="29.9319" gradientUnits="userSpaceOnUse">
<stop stop-color="#00B307"/>
<stop offset="1" stop-color="#056839"/>
</linearGradient>
<linearGradient id="paint3_linear_39_1605" x1="37.3525" y1="17.5632" x2="37.3525" y2="19.0474" gradientUnits="userSpaceOnUse">
<stop stop-color="#00B307"/>
<stop offset="1" stop-color="#056839"/>
</linearGradient>
<linearGradient id="paint4_linear_39_1605" x1="9.64768" y1="17.5632" x2="9.64768" y2="19.0474" gradientUnits="userSpaceOnUse">
<stop stop-color="#00B307"/>
<stop offset="1" stop-color="#056839"/>
</linearGradient>
<linearGradient id="paint5_linear_39_1605" x1="7.05009" y1="33.1479" x2="7.05009" y2="39.8269" gradientUnits="userSpaceOnUse">
<stop stop-color="#00B307"/>
<stop offset="1" stop-color="#056839"/>
</linearGradient>
<linearGradient id="paint6_linear_39_1605" x1="13.1106" y1="38.3418" x2="13.1106" y2="39.826" gradientUnits="userSpaceOnUse">
<stop stop-color="#00B307"/>
<stop offset="1" stop-color="#056839"/>
</linearGradient>
<linearGradient id="paint7_linear_39_1605" x1="42.7951" y1="10.1421" x2="42.7951" y2="11.6263" gradientUnits="userSpaceOnUse">
<stop stop-color="#00B307"/>
<stop offset="1" stop-color="#056839"/>
</linearGradient>
</defs>
</svg>
