<svg width="48" height="48" viewBox="0 0 48 48" fill="none" xmlns="http://www.w3.org/2000/svg">
<g clip-path="url(#clip0_39_1569)">
<path d="M5.6 41.5996C2.5128 41.5996 0 44.1124 0 47.1996C0 47.642 0.3576 47.9996 0.8 47.9996H10.4C10.8424 47.9996 11.2 47.642 11.2 47.1996C11.2 44.1124 8.6872 41.5996 5.6 41.5996ZM1.6808 46.3996C1.9992 44.8356 3.236 43.6068 4.8 43.2876V44.7996H6.4V43.2876C7.964 43.6076 9.2008 44.8356 9.5192 46.3996H1.6808Z" fill="url(#paint0_linear_39_1569)"/>
<path d="M47.2 34.4H45.7968C45.7528 34.2888 45.7072 34.1784 45.6576 34.0672L46.6504 33.0744C46.9632 32.7616 46.9632 32.256 46.6504 31.9432L43.2568 28.5496C43.0912 28.384 42.8728 28.312 42.656 28.3224C43.924 27.6496 44.8 26.332 44.8 24.8V4C44.8 1.7944 43.0056 0 40.8 0H4C1.7944 0 0 1.7944 0 4V24.8C0 27.0056 1.7944 28.8 4 28.8H14.44L11.4176 34.4H11.2H10C8.456 34.4 7.2 35.656 7.2 37.2C7.2 38.744 8.456 40 10 40H27.2C27.2 40.4424 27.5576 40.8 28 40.8H29.4032C29.4472 40.9112 29.4928 41.0216 29.5424 41.1328L28.5496 42.1256C28.2368 42.4384 28.2368 42.944 28.5496 43.2568L31.9432 46.6504C32.256 46.9632 32.7616 46.9632 33.0744 46.6504L34.0672 45.6576C34.1784 45.7072 34.2888 45.7528 34.4 45.7968V47.2C34.4 47.6424 34.7576 48 35.2 48H40C40.4424 48 40.8 47.6424 40.8 47.2V45.7968C40.9112 45.7528 41.0216 45.7072 41.1328 45.6576L42.1256 46.6504C42.4384 46.9632 42.944 46.9632 43.2568 46.6504L46.6504 43.2568C46.9632 42.944 46.9632 42.4384 46.6504 42.1256L45.6576 41.1328C45.7072 41.0216 45.7528 40.9112 45.7968 40.8H47.2C47.6424 40.8 48 40.4424 48 40V35.2C48 34.7576 47.6424 34.4 47.2 34.4ZM1.6 4C1.6 2.6768 2.6768 1.6 4 1.6H40.8C42.1232 1.6 43.2 2.6768 43.2 4V20.8H1.6V4ZM4 27.2C2.6768 27.2 1.6 26.1232 1.6 24.8V22.4H43.2V24.8C43.2 26.1232 42.1232 27.2 40.8 27.2H40H35.2H29.0192H15.7808H4ZM42.1152 28.56L41.1328 29.5424C41.0216 29.4928 40.9112 29.4472 40.8 29.4032V28.8C41.2632 28.8 41.7008 28.7056 42.1152 28.56ZM34.4 28.8V29.4032C34.2888 29.4472 34.1784 29.4928 34.0672 29.5424L33.3248 28.8H34.4ZM31.692 28.8L31.0024 29.4896L30.5328 28.8H31.692ZM27.2 38.4H10C9.3384 38.4 8.8 37.8616 8.8 37.2C8.8 36.5384 9.3384 36 10 36H11.2H11.8944H27.2V38.4ZM13.2356 34.3992L16.2576 28.8H28.5968L29.8512 30.6408L28.5496 31.9424C28.2368 32.2552 28.2368 32.7608 28.5496 33.0736L29.5424 34.0664C29.4928 34.1776 29.4472 34.288 29.4032 34.3992H28H13.2356ZM46.4 39.2H45.2328C44.8832 39.2 44.5752 39.4264 44.4696 39.7592C44.348 40.1456 44.184 40.5392 43.9816 40.9264C43.82 41.2368 43.8784 41.6152 44.1256 41.8624L44.9544 42.6912L42.692 44.9536L41.8632 44.1248C41.6152 43.8776 41.2376 43.82 40.9272 43.9808C40.54 44.1832 40.1464 44.3472 39.76 44.4688C39.4264 44.5752 39.2 44.8832 39.2 45.2328V46.4H36V45.2328C36 44.8832 35.7736 44.5752 35.4408 44.4696C35.0544 44.348 34.6608 44.184 34.2736 43.9816C33.9632 43.8208 33.5848 43.8784 33.3376 44.1256L32.5088 44.9544L30.2464 42.692L31.0752 41.8632C31.3224 41.616 31.3808 41.2376 31.2192 40.9272C31.0168 40.54 30.8528 40.1464 30.7312 39.76C30.6248 39.4264 30.3168 39.2 29.9672 39.2H28.8V36H29.9672C30.3168 36 30.6248 35.7736 30.7304 35.4408C30.852 35.0544 31.016 34.6608 31.2184 34.2736C31.38 33.9632 31.3216 33.5848 31.0744 33.3376L30.2456 32.5088L32.508 30.2464L33.3368 31.0752C33.584 31.3232 33.9624 31.3808 34.2728 31.2192C34.66 31.0168 35.0536 30.8528 35.44 30.7312C35.7736 30.6248 36 30.3168 36 29.9672V28.8H39.2V29.9672C39.2 30.3168 39.4264 30.6248 39.7592 30.7304C40.1456 30.852 40.5392 31.016 40.9264 31.2184C41.2368 31.38 41.6144 31.3224 41.8624 31.0744L42.6912 30.2456L44.9536 32.508L44.1248 33.3368C43.8776 33.584 43.8192 33.9624 43.9808 34.2728C44.1832 34.66 44.3472 35.0536 44.4688 35.44C44.5752 35.7736 44.8832 36 45.2328 36H46.4V39.2Z" fill="url(#paint1_linear_39_1569)"/>
<path d="M37.6008 32.7998C34.9536 32.7998 32.8008 34.9526 32.8008 37.5998C32.8008 40.247 34.9536 42.3998 37.6008 42.3998C40.248 42.3998 42.4008 40.247 42.4008 37.5998C42.4008 34.9526 40.248 32.7998 37.6008 32.7998ZM37.6008 40.7998C35.836 40.7998 34.4008 39.3646 34.4008 37.5998C34.4008 35.835 35.836 34.3998 37.6008 34.3998C39.3656 34.3998 40.8008 35.835 40.8008 37.5998C40.8008 39.3646 39.3656 40.7998 37.6008 40.7998Z" fill="url(#paint2_linear_39_1569)"/>
<path d="M15.7646 6.16538L14.6334 5.03418L9.03343 10.6342C8.72063 10.947 8.72063 11.4526 9.03343 11.7654L14.6334 17.3654L15.7646 16.2342L10.7302 11.1998L15.7646 6.16538Z" fill="url(#paint3_linear_39_1569)"/>
<path d="M33.366 10.6342L27.766 5.03418L26.6348 6.16538L31.6692 11.1998L26.6348 16.2342L27.766 17.3654L33.366 11.7654C33.6788 11.4526 33.6788 10.947 33.366 10.6342Z" fill="url(#paint4_linear_39_1569)"/>
<path d="M24.0807 2.84613L16.8828 17.2419L18.3139 17.9575L25.5118 3.56165L24.0807 2.84613Z" fill="url(#paint5_linear_39_1569)"/>
<path d="M32.7992 16H31.1992V17.6H32.7992V16Z" fill="url(#paint6_linear_39_1569)"/>
<path d="M36.0004 16H34.4004V17.6H36.0004V16Z" fill="url(#paint7_linear_39_1569)"/>
<path d="M39.1996 16H37.5996V17.6H39.1996V16Z" fill="url(#paint8_linear_39_1569)"/>
</g>
<defs>
<linearGradient id="paint0_linear_39_1569" x1="5.6" y1="41.5996" x2="5.6" y2="47.9996" gradientUnits="userSpaceOnUse">
<stop stop-color="#00B307"/>
<stop offset="1" stop-color="#056839"/>
</linearGradient>
<linearGradient id="paint1_linear_39_1569" x1="24" y1="0" x2="24" y2="48" gradientUnits="userSpaceOnUse">
<stop stop-color="#00B307"/>
<stop offset="1" stop-color="#056839"/>
</linearGradient>
<linearGradient id="paint2_linear_39_1569" x1="37.6008" y1="32.7998" x2="37.6008" y2="42.3998" gradientUnits="userSpaceOnUse">
<stop stop-color="#00B307"/>
<stop offset="1" stop-color="#056839"/>
</linearGradient>
<linearGradient id="paint3_linear_39_1569" x1="12.2817" y1="5.03418" x2="12.2817" y2="17.3654" gradientUnits="userSpaceOnUse">
<stop stop-color="#00B307"/>
<stop offset="1" stop-color="#056839"/>
</linearGradient>
<linearGradient id="paint4_linear_39_1569" x1="30.1177" y1="5.03418" x2="30.1177" y2="17.3654" gradientUnits="userSpaceOnUse">
<stop stop-color="#00B307"/>
<stop offset="1" stop-color="#056839"/>
</linearGradient>
<linearGradient id="paint5_linear_39_1569" x1="20.4818" y1="10.044" x2="21.9128" y2="10.7596" gradientUnits="userSpaceOnUse">
<stop stop-color="#00B307"/>
<stop offset="1" stop-color="#056839"/>
</linearGradient>
<linearGradient id="paint6_linear_39_1569" x1="31.9992" y1="16" x2="31.9992" y2="17.6" gradientUnits="userSpaceOnUse">
<stop stop-color="#00B307"/>
<stop offset="1" stop-color="#056839"/>
</linearGradient>
<linearGradient id="paint7_linear_39_1569" x1="35.2004" y1="16" x2="35.2004" y2="17.6" gradientUnits="userSpaceOnUse">
<stop stop-color="#00B307"/>
<stop offset="1" stop-color="#056839"/>
</linearGradient>
<linearGradient id="paint8_linear_39_1569" x1="38.3996" y1="16" x2="38.3996" y2="17.6" gradientUnits="userSpaceOnUse">
<stop stop-color="#00B307"/>
<stop offset="1" stop-color="#056839"/>
</linearGradient>
<clipPath id="clip0_39_1569">
<rect width="48" height="48" fill="white"/>
</clipPath>
</defs>
</svg>
